<svg width="1440" height="1024" viewBox="0 0 1440 1024" fill="none" xmlns="http://www.w3.org/2000/svg">
<rect width="1440" height="1024" fill="white"/>
<path d="M664.728 520.256H680.28L693.24 556.544C694.968 561.344 697.32 569.168 700.296 580.016H701.016C703.8 569.744 706.152 561.92 708.072 556.544L720.888 520.256H735.72L707.784 596H692.664L664.728 520.256ZM774.399 597.728C764.031 597.728 756.111 595.568 750.639 591.248C745.263 586.928 742.575 581.504 742.575 574.976C742.575 573.92 742.575 573.248 742.575 572.96C742.671 572.576 742.719 572.336 742.719 572.24H757.263V573.536C757.263 577.664 758.943 580.784 762.303 582.896C765.663 584.912 769.935 585.92 775.119 585.92C779.727 585.92 783.567 585.056 786.639 583.328C789.807 581.6 791.391 579.152 791.391 575.984C791.391 573.488 790.527 571.472 788.799 569.936C787.071 568.304 784.959 567.056 782.463 566.192C779.967 565.232 776.367 564.128 771.663 562.88C765.903 561.44 761.199 560 757.551 558.56C753.903 557.12 750.783 554.96 748.191 552.08C745.695 549.2 744.447 545.36 744.447 540.56C744.447 533.648 747.279 528.272 752.943 524.432C758.607 520.496 766.143 518.528 775.551 518.528C781.407 518.528 786.495 519.44 790.815 521.264C795.231 522.992 798.591 525.44 800.895 528.608C803.295 531.776 804.495 535.328 804.495 539.264L804.351 542.144H789.807V541.136C789.807 537.968 788.511 535.424 785.919 533.504C783.423 531.488 779.535 530.48 774.255 530.48C769.167 530.48 765.423 531.392 763.023 533.216C760.719 534.944 759.567 537.008 759.567 539.408C759.567 542.384 761.007 544.592 763.887 546.032C766.767 547.472 771.327 548.912 777.567 550.352C783.615 551.792 788.559 553.28 792.399 554.816C796.239 556.256 799.551 558.56 802.335 561.728C805.119 564.8 806.511 568.928 806.511 574.112C806.511 582.176 803.583 588.128 797.727 591.968C791.967 595.808 784.191 597.728 774.399 597.728Z" fill="black"/>
<path d="M466 795.5C466 841.306 441.262 881.339 404.41 902.956C403.419 903.541 402.414 904.11 401.402 904.664C383.632 914.441 363.219 920 341.5 920C324.7 920 308.683 916.672 294.063 910.64C291.716 909.674 289.403 908.637 287.132 907.53C245.615 887.35 217 844.766 217 795.5C217 726.741 272.741 671 341.5 671C410.259 671 466 726.741 466 795.5Z" fill="#F2F2F2"/>
<path d="M357.852 673.24C361.542 687.328 360.535 694.372 341.08 710.474C321.624 726.575 318.605 726.91 318.605 736.973C318.605 747.036 333.532 762.97 340.744 767.499C340.744 767.499 339.57 764.647 336.887 760.287C334.203 755.927 325.985 748.546 327.494 737.309C329.003 726.072 352.736 711.732 358.858 700.914C364.979 690.095 363.554 680.955 357.852 673.24Z" fill="#DE0A17"/>
<path d="M379.32 708.796C362.548 714.331 341.751 723.052 341.751 739.992C341.751 756.932 352.485 753.745 352.485 762.802C352.485 771.859 346.614 774.542 346.614 774.542C346.614 774.542 362.044 768.672 361.374 756.931C360.703 745.191 351.478 746.868 351.478 735.966C351.478 722.167 379.32 708.796 379.32 708.796Z" fill="#DE0A17"/>
<path d="M319.947 768.84C303.175 768.84 291.602 775.046 291.602 778.568C291.602 782.09 312.232 785.445 334.539 783.935C356.846 782.426 368.586 780.581 377.475 775.213C377.475 775.213 361.709 778.903 349.633 778.903C337.557 778.903 303.046 781.061 303.846 775.884C304.646 770.707 324.644 768.84 324.644 768.84L319.947 768.84Z" fill="#DE0A17"/>
<path d="M313.741 788.463C304.852 791.65 302.503 794.837 307.703 798.191C312.902 801.546 323.133 802.552 337.222 802.552C351.31 802.552 370.934 797.687 370.934 797.687L364.561 792.655C364.561 792.655 355.839 795.842 339.235 795.842C322.63 795.842 305.942 796.263 313.741 788.463Z" fill="#DE0A17"/>
<path d="M317.766 807.416C309.044 810.435 307.2 814.46 314.915 818.15C322.63 821.84 337.39 822.51 348.291 821.001C359.193 819.492 368.417 816.137 368.417 816.137C368.417 816.137 362.463 813.873 359.695 811.105C359.695 811.105 346.949 813.788 334.873 813.788C322.797 813.788 313.07 812.112 317.766 807.416Z" fill="#DE0A17"/>
<path d="M382.842 769.846C382.842 769.846 387.035 764.144 397.602 768.504C408.168 772.865 407.833 784.606 398.272 791.65C388.712 798.694 377.14 801.042 377.14 801.042C377.14 801.042 398.608 791.65 398.105 780.077C397.602 768.505 387.706 768.84 382.842 769.846Z" fill="#DE0A17"/>
<path d="M296.969 830.895C330.012 836.933 380.328 830.729 389.214 828.55C398.105 826.367 394.85 821.637 394.85 821.637C397.023 823.172 397.989 824.862 397.099 826.704C392.233 836.767 345.943 838.442 332.357 838.442C318.771 838.442 277.512 837.607 277.512 830.226C277.512 822.935 296.98 818.426 304.245 820.102C290.579 824.012 282.468 828.244 296.969 830.895Z" fill="#DE0A17"/>
<path d="M300.743 841.672C300.743 841.672 312.441 850.603 370.682 845.446C393.953 843.559 403.639 837.773 404.897 831.357C404.897 831.357 394.205 837.395 380.997 839.911C367.789 842.428 346.027 846.327 300.743 841.672Z" fill="#DE0A17"/>
<path d="M299.617 854.584H289.947C290.161 862.699 290.374 869.829 290.374 877.238C290.374 882.884 290.161 889.515 290.161 896.147C290.161 900.527 289.16 904.222 287.132 907.53C289.404 908.638 291.716 909.674 294.063 910.64C297.539 906.432 299.516 901.214 299.404 894.669C299.261 889.302 299.261 882.391 299.261 877.239C299.261 869.544 299.404 862.064 299.617 854.584Z" fill="#DE0A17"/>
<path d="M364.728 868.274L358.869 885.633C357.812 888.809 357.034 891.843 356.328 894.877H355.693C355.2 891.772 354.494 888.951 353.294 885.633L351.389 880.058C349.976 876.11 348.777 871.943 347.72 867.923L337.984 869.123L351.531 904.262L358.519 903.556L366.771 882.178C368.397 878.016 370.511 873.071 372.488 868.696L364.728 868.274Z" fill="#DE0A17"/>
<path d="M391.915 867.918C387.966 867.918 383.449 868.767 377.452 872.085L379.002 877.588L379.566 877.939C383.449 875.119 386.909 873.777 389.587 873.777C393.185 873.777 395.868 876.175 395.868 879.992V883.092C380.415 885.424 376.604 890.221 376.604 895.795C376.604 901.655 380.771 904.826 385.425 904.826C389.308 904.826 392.692 902.498 395.731 899.957L396.361 900.1C396.991 903.271 399.085 904.47 401.402 904.663C402.413 904.109 403.419 903.54 404.41 902.956V878.93C404.41 871.521 399.964 867.918 391.915 867.918ZM395.869 895.654C393.333 897.844 391.214 898.972 389.308 898.972C386.909 898.972 384.933 897.422 384.933 894.384C384.933 891.136 387.118 888.738 395.868 887.468V895.654H395.869Z" fill="#DE0A17"/>
<path d="M321.565 867.923C317.616 867.923 313.099 868.767 307.098 872.085L308.652 877.589L309.217 877.944C313.099 875.119 316.554 873.777 319.237 873.777C322.835 873.777 325.518 876.176 325.518 879.987V883.092C310.065 885.424 306.254 890.222 306.254 895.796C306.254 901.655 310.416 904.826 315.075 904.826C318.953 904.826 322.342 902.498 325.376 899.958L326.011 900.1C326.717 903.698 329.329 904.76 332.007 904.689C332.668 904.689 333.359 904.608 334.055 904.46V878.93C334.055 871.521 329.609 867.923 321.565 867.923ZM325.518 895.654C322.978 897.844 320.858 898.972 318.953 898.972C316.554 898.972 314.577 897.417 314.577 894.384C314.577 891.136 316.768 888.738 325.518 887.468V895.654V895.654Z" fill="#DE0A17"/>
<path d="M1244 795.5C1244 803.031 1243.33 810.404 1242.05 817.564C1231.64 875.8 1180.73 920 1119.5 920C1073.37 920 1033.1 894.912 1011.59 857.633C1006.34 848.542 1002.22 838.73 999.391 828.378C996.525 817.905 995 806.878 995 795.5C995 726.741 1050.74 671 1119.5 671C1176.25 671 1224.13 708.97 1239.13 760.894C1242.3 771.88 1244 783.492 1244 795.5Z" fill="#8F9ED1"/>
<path d="M1058.31 757.683H1012.46L999.391 828.378C1002.22 838.73 1006.34 848.542 1011.59 857.633H1015.84L1020.91 830.253H1046.1C1076.78 830.253 1085.03 802.711 1087 789.184C1088.98 775.661 1079.09 757.683 1058.31 757.683ZM1064.96 791.465C1063.84 799.133 1058.17 814.749 1040.78 814.749H1023.77L1031.37 773.603H1048.69C1065.56 773.603 1066.08 783.797 1064.96 791.465Z" fill="#F2F2F2"/>
<path d="M1239.13 760.894C1235.23 758.881 1230.58 757.682 1225.22 757.682H1179.37L1160.89 857.633H1182.76L1187.82 830.253H1213.01C1226.66 830.253 1235.86 824.806 1242.05 817.565C1243.33 810.404 1244 803.031 1244 795.5C1244 783.492 1242.3 771.881 1239.13 760.894ZM1231.87 791.465C1230.75 799.133 1225.08 814.749 1207.69 814.749H1190.68L1198.29 773.603H1215.6C1232.47 773.603 1232.99 783.797 1231.87 791.465Z" fill="#F2F2F2"/>
<path d="M1145.39 758.013C1136.49 758.013 1124.62 758.013 1118.84 758.013L1123.82 731.046H1102.05L1083.58 830.994H1105.35L1115.97 773.517C1119.9 773.517 1125.11 773.517 1129.89 773.517C1139.12 773.517 1145.39 775.496 1144.07 784.073C1142.75 792.649 1135.17 830.583 1135.17 830.583H1157.27C1157.27 830.583 1165.84 788.361 1167.16 776.486C1168.48 764.61 1157.6 758.013 1145.39 758.013Z" fill="#F2F2F2"/>
<line x1="222.685" y1="674.344" x2="464.089" y2="915.748" stroke="#FF0000" stroke-width="10"/>
<line x1="470.536" y1="673.536" x2="220.536" y2="923.536" stroke="#FF0000" stroke-width="10"/>
<line x1="1000.68" y1="665.344" x2="1242.09" y2="906.748" stroke="#FF0000" stroke-width="10"/>
<line x1="1248.54" y1="664.536" x2="998.536" y2="914.536" stroke="#FF0000" stroke-width="10"/>
<path d="M149.312 132L168.836 352.5L256.5 377L344.133 352.515L363.688 132H149.312ZM321.348 204.107H256.5H218.586L221.036 231.807H256.5H318.898L311.533 314.862L256.5 330.22L256.469 330.236L201.467 314.862L197.608 271.42H224.558L226.549 293.96L256.454 302.107L256.5 302.076L286.436 293.93L289.56 258.849H256.5H196.506L189.248 177.08H256.5H323.737L321.348 204.107Z" fill="#FFA800"/>
<path d="M623.312 132L642.836 352.5L730.5 377L818.133 352.515L837.688 132H623.312Z" fill="#2196F3"/>
<path d="M795.946 204.107L793.48 231.807L786.038 314.847L730.5 330.205L730.454 330.22L674.946 314.847L671.072 271.42H698.267L700.288 293.945L730.469 302.091L730.485 302.076L760.712 293.93L764.831 256.399L669.771 256.659L667.076 230.995L767.112 229.816L769.133 202.346L664.396 202.637L662.635 177.08H730.5H798.365L795.946 204.107Z" fill="#FAFAFA"/>
<path d="M1079 350V128H1301V350H1079Z" fill="#FFD600"/>
<path d="M1224.15 294.173C1228.42 301.104 1233.06 307.746 1242.88 307.746C1251.13 307.746 1255.46 303.645 1255.46 297.972C1255.46 291.182 1250.98 288.771 1241.9 284.818L1236.93 282.697C1222.57 276.604 1213.01 268.97 1213.01 252.844C1213.01 237.983 1224.39 226.673 1242.17 226.673C1254.83 226.673 1263.93 231.057 1270.49 242.54L1254.98 252.45C1251.57 246.357 1247.89 243.958 1242.17 243.958C1236.34 243.958 1232.64 247.64 1232.64 252.45C1232.64 258.394 1236.34 260.799 1244.88 264.481L1249.86 266.602C1266.79 273.811 1276.33 281.174 1276.33 297.725C1276.33 315.559 1262.25 325.333 1243.34 325.333C1224.85 325.333 1214.35 316.053 1208.5 304.564L1224.15 294.173ZM1152.7 294.679C1155.82 300.266 1160.57 304.564 1167.39 304.564C1173.91 304.564 1177.67 301.986 1177.67 291.966V226.667H1198.22V295.123C1198.22 315.886 1186.18 325.333 1168.59 325.333C1152.7 325.333 1141.23 314.566 1136.55 304.564L1152.7 294.679Z" fill="#000001"/>
</svg>
